<svg id="Quick_logo" data-name="Quick logo" xmlns="http://www.w3.org/2000/svg" xmlns:xlink="http://www.w3.org/1999/xlink" width="107" height="180.773" viewBox="0 0 107 180.773">
  <defs>
    <clipPath id="clip-path">
      <rect id="Rectangle_6" data-name="Rectangle 6" width="107" height="180.773" fill="none"/>
    </clipPath>
  </defs>
  <g id="Group_3" data-name="Group 3" clip-path="url(#clip-path)">
    <path id="Path_2" data-name="Path 2" d="M107,149.237V0H0V180.773L90.437,169.6S107,167.05,107,149.237" transform="translate(0 -0.001)" fill="#c8102e"/>
    <path id="Path_3" data-name="Path 3" d="M121.7,144.336c-11.306,8-24.065,5.141-32.017,2.016,17.068-5.774,28.62-22.24,28.62-41.655,0-24.226-18.41-43.866-42.062-43.866S34.181,80.471,34.181,104.7c0,15.423,7.006,28.985,18.76,36.805a39.876,39.876,0,0,0-16.914,8.712l5.128,8.594a30.924,30.924,0,0,1,24.02-1.446c12.547,4.465,18.53,8.874,30.248,9.574,20.25,1.21,26.428-14.61,27.686-21.633ZM76.239,130.882c-11.218,0-19-12.634-19-26.185s7.783-26.187,19-26.187,19,12.635,19,26.187-7.784,26.185-19,26.185" transform="translate(-23.862 -42.355)" fill="#fff"/>
    <path id="Path_4" data-name="Path 4" d="M246.205,517.5h0l-.015.009.015-.007" transform="translate(-171.869 -360.317)" fill="#fff"/>
    <path id="Path_5" data-name="Path 5" d="M312.7,396.829v-.015a2.4,2.4,0,1,1,4.806-.013v.013a2.4,2.4,0,1,1-4.806.015m4.53-.015V396.8a2.12,2.12,0,0,0-2.127-2.154,2.142,2.142,0,0,0-2.127,2.167v.015a2.127,2.127,0,1,0,4.254-.015m-3.121-.985a.311.311,0,0,1,.3-.32h.869c.594,0,1.008.28,1.008.835a.781.781,0,0,1-.5.763l.372.458a.305.305,0,0,1-.221.516.335.335,0,0,1-.248-.125l-.58-.722h-.4v.541a.3.3,0,1,1-.607,0Zm1.132.9c.275,0,.428-.139.428-.346,0-.224-.166-.348-.428-.348h-.525v.694Z" transform="translate(-218.299 -274.598)" fill="#fff"/>
    <path id="Path_6" data-name="Path 6" d="M129.808,479.823l-.013,7.709c0,.8,0,2.153-1.487,2.336a1.369,1.369,0,0,1-.235.017,1.244,1.244,0,0,1-.952-.36,2.5,2.5,0,0,1-.446-1.77l.014-7.547-6.385.8-.014,8.471a5.488,5.488,0,0,0,1.416,3.969,6.92,6.92,0,0,0,5.154,1.781,11.656,11.656,0,0,0,1.285-.088c5.921-.736,8.025-4.666,8.031-7.8l.016-8.307Z" transform="translate(-83.977 -333.532)" fill="#fff"/>
    <path id="Path_7" data-name="Path 7" d="M182.053,476.054l-.024,14.761,6.438-.8.025-14.763Z" transform="translate(-127.077 -330.904)" fill="#fff"/>
    <path id="Path_8" data-name="Path 8" d="M183.883,453.785a4.934,4.934,0,0,0,.562-.041,3.809,3.809,0,0,0,3.663-3.818,2.757,2.757,0,0,0-.7-1.959,3.025,3.025,0,0,0-2.26-.811,4.4,4.4,0,0,0-.538.039,3.854,3.854,0,0,0-3.66,3.786,2.8,2.8,0,0,0,.687,2.019,3.022,3.022,0,0,0,2.245.785" transform="translate(-126.325 -311.341)" fill="#fff"/>
    <path id="Path_9" data-name="Path 9" d="M274.046,442.063l-6.574.82-3.576,6.2-.735.092.026-15.628-4.143.515a2.814,2.814,0,0,0-1.637.836l-.019.023a2.971,2.971,0,0,0-.643,1.8l-.037,22.263,6.438-.8.01-5.691.632-.08,3.158,4.083a2.954,2.954,0,0,0,2.557.9l4.889-.609-5.435-6.929Z" transform="translate(-179.211 -301.863)" fill="#fff"/>
    <path id="Path_10" data-name="Path 10" d="M59.429,484.676l.149-.241a12.349,12.349,0,0,0,1.868-6.713,9.94,9.94,0,0,0-2.484-7.1,9.218,9.218,0,0,0-6.987-2.6,14.261,14.261,0,0,0-1.582.109,12.6,12.6,0,0,0-11.24,12.527,9.8,9.8,0,0,0,2.531,7.007,9.028,9.028,0,0,0,6.746,2.6,11.193,11.193,0,0,0,1.359-.094,14.423,14.423,0,0,0,5.549-1.774l.21-.122,1.918,1.811a5.209,5.209,0,0,0,1.576,1.223,4.064,4.064,0,0,0,1.532.251,2.962,2.962,0,0,0,.386-.023l4.591-.656Zm-7.925-1.21a6.029,6.029,0,0,1-1.3.339c-.143.017-.286.027-.426.03A3.3,3.3,0,0,1,47.3,482.8a5.1,5.1,0,0,1,2.929-8.311,3.631,3.631,0,0,1,3.128,1.049,4.483,4.483,0,0,1,1.157,3.159,7.178,7.178,0,0,1-.2,1.628l-4.737.716,1.49,1.371.893.854Z" transform="translate(-27.333 -325.873)" fill="#fff"/>
    <path id="Path_11" data-name="Path 11" d="M215.791,477.267a3.354,3.354,0,0,0,.277,1.416,2.264,2.264,0,0,0,.411.6,3.031,3.031,0,0,0,2.245.786,4.719,4.719,0,0,0,.564-.041,4.421,4.421,0,0,0,2.435-1.025v4.6l-.194.112a10.451,10.451,0,0,1-3.756,1.152,8.25,8.25,0,0,1-.971.068,6.454,6.454,0,0,1-4.817-1.856,7.02,7.02,0,0,1-1.806-5,8.983,8.983,0,0,1,1.283-4.639,9.113,9.113,0,0,1,6.743-4.3,9.754,9.754,0,0,1,1.131-.081,7.021,7.021,0,0,1,2.387.33v4.506a2.853,2.853,0,0,0-1.733-.449,4.65,4.65,0,0,0-.537.041,4.9,4.9,0,0,0-1.3.341,3.679,3.679,0,0,0-2.361,3.445" transform="translate(-146.729 -326.587)" fill="#fff"/>
  </g>
</svg>